PathFileType	4	(X/Y/Z)	s05c0102.trc
DataRate	CameraRate	NumFrames	NumMarkers	Units	OrigDataRate	OrigDataStartFrame	OrigNumFrames
200	200	4	50	mm	200	1750	2000
Frame#	Time	racr			lacr			c7			jug			rlel			rdr			llel			ldr			s2			lic			ric			lasi			rasi			rpsi			lpsi			rgt			lgt			rth1			rth2			rth3			rth4			rlfc			rmfc			rsh1			rsh2			rsh3			rsh4			rlmal			rmmal			rcal			rtoe			rmt5			lth1			lth2			lth4			lth3			llfc			lmfc			lsh1			lsh2			lsh3			lsh4			llmal			lmmal			lcal			ltoe			lmt5			SBIKE			LBIKE			RBIKE			
		X1	Y1	Z1	X2	Y2	Z2	X3	Y3	Z3	X4	Y4	Z4	X5	Y5	Z5	X6	Y6	Z6	X7	Y7	Z7	X8	Y8	Z8	X9	Y9	Z9	X10	Y10	Z10	X11	Y11	Z11	X12	Y12	Z12	X13	Y13	Z13	X14	Y14	Z14	X15	Y15	Z15	X16	Y16	Z16	X17	Y17	Z17	X18	Y18	Z18	X19	Y19	Z19	X20	Y20	Z20	X21	Y21	Z21	X22	Y22	Z22	X23	Y23	Z23	X24	Y24	Z24	X25	Y25	Z25	X26	Y26	Z26	X27	Y27	Z27	X28	Y28	Z28	X29	Y29	Z29	X30	Y30	Z30	X31	Y31	Z31	X32	Y32	Z32	X33	Y33	Z33	X34	Y34	Z34	X35	Y35	Z35	X36	Y36	Z36	X37	Y37	Z37	X38	Y38	Z38	X39	Y39	Z39	X40	Y40	Z40	X41	Y41	Z41	X42	Y42	Z42	X43	Y43	Z43	X44	Y44	Z44	X45	Y45	Z45	X46	Y46	Z46	X47	Y47	Z47	X48	Y48	Z48	X49	Y49	Z49	X50	Y50	Z50	
1750	8.7500	481.353044	1274.609202	-170.850552	492.430291	1284.050742	-419.350548	469.145713	1351.236337	-298.975236	406.140915	1204.480686	-303.655604	512.213008	1060.567701	4.622507	690.999644	918.801915	-87.601327	474.124995	1052.834072	-597.995545	673.697573	929.607750	-482.825579	-105.597553	1174.051778	-307.495254	44.537562	1176.146035	-449.299601	35.178524	1205.270373	-167.034291	91.741343	1124.577436	-409.012806	78.830871	1144.651969	-189.027814	-72.958619	1224.844244	-271.409481	-66.653092	1219.555513	-357.110094	5.057021	1095.779640	-126.087789	-20.250269	1065.381969	-463.791607	107.454584	1045.019595	-108.855595	195.624707	1030.166128	-103.025123	261.851049	972.218313	-96.634413	210.678713	1059.420473	-120.427088	380.501108	882.096226	-113.687955	372.934692	867.364382	-223.700545	290.653302	819.713801	-89.485795	247.401211	742.937470	-99.523928	175.499002	696.762331	-103.705421	272.338296	722.142699	-119.990130	90.662363	594.768538	-110.479008	119.419910	608.471171	-188.977954	22.247663	624.112724	-156.347132	193.158854	382.371258	-158.618054	111.577201	444.335337	-92.672310	67.380493	942.952280	-475.383560	137.523202	893.665139	-468.141338	165.599885	915.449153	-455.485541	172.670633	810.465060	-459.844504	249.594608	689.195474	-422.043643	226.176779	675.737653	-318.749538	213.922012	567.573706	-453.412844	224.995237	481.837804	-441.803371	191.667143	399.549758	-444.098081	253.830249	480.890085	-416.585815	182.120965	280.769693	-439.240681	198.401992	311.020506	-366.683764	122.221524	239.148697	-397.601264	417.113663	223.392151	-402.860791	309.211281	196.890907	-465.559965	-219.530948	910.927165	-276.134791	-53.307413	79.155429	-475.127923	-53.343749	79.317589	-77.463317	
1751	8.7550	481.228724	1275.603265	-169.728326	493.432895	1284.535078	-417.970972	469.772570	1351.763286	-297.859112	406.545638	1205.100394	-302.449169	512.663804	1061.119022	4.840338	691.163203	919.232235	-87.711338	476.332182	1054.111274	-597.814119	674.572379	929.102269	-482.646599	-104.004751	1174.978147	-310.008735	46.925510	1176.258779	-450.767875	34.563442	1207.295345	-168.563900	91.624455	1123.423823	-407.044186	78.720054	1146.692571	-190.323132	-72.109626	1226.125992	-274.326923	-65.193743	1220.371337	-360.046329	5.396027	1099.893172	-127.226030	-18.957456	1065.158942	-464.686825	108.106803	1050.544887	-109.962003	196.432872	1037.275275	-104.315200	263.588084	980.622753	-97.008925	210.871030	1066.334568	-122.498674	383.725210	891.347553	-114.217967	375.999067	877.104592	-224.897304	294.376151	828.548355	-90.012880	251.456026	751.595886	-99.836585	179.936096	704.781266	-103.780562	276.355658	730.776776	-120.286431	95.440499	602.214625	-110.841593	123.939391	616.399886	-189.262361	26.121054	630.267799	-156.714486	198.746169	390.169468	-161.160786	119.004414	452.267565	-92.887696	65.756039	941.265190	-476.010271	134.574829	890.225860	-468.782698	163.247261	911.321004	-456.281639	167.563012	806.103134	-460.107834	242.234404	684.151217	-422.262844	217.746903	670.464043	-319.124870	206.624207	562.430800	-454.101101	217.666068	476.661594	-442.517807	184.384751	394.411941	-444.972502	246.605394	475.668673	-417.140571	175.482427	275.578180	-439.981658	191.611781	305.178296	-367.574807	115.122275	234.510870	-398.729485	409.889784	215.022771	-402.019012	302.113736	189.840165	-465.493083	-219.547520	910.979401	-276.150826	-53.318939	79.161395	-475.133708	-53.351179	79.339398	-77.461082	
1752	8.7600	481.104874	1276.706911	-168.792202	494.302434	1284.961703	-416.609280	470.293237	1352.215868	-296.857022	406.956190	1205.593381	-301.213218	512.729818	1061.796127	4.909969	691.267255	919.683711	-87.818163	478.607725	1055.444684	-597.739919	675.478749	928.456213	-482.692267	-102.865384	1175.949541	-312.310195	49.118476	1176.369858	-452.151219	33.745140	1209.445733	-170.058853	93.213853	1123.560300	-407.776058	78.519019	1148.709416	-191.634853	-71.473826	1227.595327	-276.942271	-63.803552	1221.230308	-363.038945	5.504067	1104.008779	-128.252485	-17.861854	1065.012254	-465.466378	108.476013	1055.952148	-111.036890	197.148865	1044.206402	-105.415420	265.114344	988.758180	-97.574032	210.919504	1073.031341	-124.644522	386.983834	900.449895	-114.890281	379.624601	884.903468	-225.137349	298.025085	837.052857	-90.822461	256.032262	759.870791	-99.551698	184.383758	712.557025	-103.902402	280.516114	739.197528	-120.857907	100.499408	609.146376	-111.295065	129.126336	623.944322	-189.292624	30.458014	636.061333	-156.982595	208.769555	400.209570	-160.075152	127.431827	459.953855	-93.074973	64.115097	940.066085	-476.621069	131.597448	887.416669	-469.503520	160.841356	907.787194	-457.110081	162.594900	802.477076	-460.623076	235.176453	679.500145	-422.456864	209.621546	665.957071	-319.471830	199.576938	557.797562	-454.939815	210.506742	472.090728	-443.245233	177.176572	389.754303	-445.866012	239.250067	470.918604	-417.644614	168.745888	271.012632	-440.838042	184.633403	299.936394	-368.417869	107.809731	230.572161	-400.072032	402.282341	207.027640	-401.029988	294.727785	183.360175	-465.421453	-219.796297	910.958674	-275.696311	-53.321183	79.207256	-475.116445	-53.338163	79.368834	-77.452662	
1753	8.7650	480.928278	1277.634926	-167.812977	495.024864	1285.256133	-415.348691	470.738899	1352.578181	-295.931020	407.213143	1206.030033	-300.033143	512.879660	1062.426009	5.001415	691.358587	920.145944	-87.908544	480.352594	1056.392401	-597.753194	676.591056	927.963161	-482.743953	-102.343627	1177.349063	-316.266781	51.100957	1176.388082	-453.276933	32.886775	1211.430516	-171.448433	94.756878	1123.731732	-408.534923	78.267076	1150.665096	-192.815092	-70.943770	1229.006216	-279.474165	-62.312034	1221.583766	-365.606116	5.254494	1107.709917	-129.678916	-16.865313	1065.030182	-466.128662	108.751967	1061.119180	-112.121603	197.527301	1050.733225	-107.238268	266.493649	996.578092	-98.349696	210.785225	1079.505099	-126.881272	389.406901	908.971542	-115.380021	382.875303	892.970747	-226.040832	301.610063	845.228757	-91.758170	260.238322	767.731041	-100.251600	188.816584	719.976314	-104.331290	284.757328	747.241304	-121.629480	105.826386	615.424408	-111.751241	133.525758	630.647414	-190.241004	35.135051	641.173795	-157.264374	218.130883	408.497850	-161.002101	135.638753	466.804862	-93.304249	62.531372	939.418393	-477.387667	128.814429	885.164766	-470.368712	158.463532	904.885458	-457.908537	157.839221	799.583147	-461.396490	228.170381	675.346242	-422.820604	201.902947	662.015718	-319.843607	192.734989	553.717782	-455.779331	203.510585	467.997985	-444.002757	170.099982	385.629584	-446.839075	232.075867	466.821857	-418.211971	161.906121	266.995106	-441.677588	177.511508	295.326718	-369.192861	100.186777	227.514617	-401.532673	394.312120	199.401122	-400.011213	286.966224	177.477900	-465.377961	-219.905515	911.061006	-275.601680	-53.335367	79.215447	-475.123087	-53.355450	79.372657	-77.463399	
